ArcadiaSans.glyphspackage
{
glyphname = numbersign;
layers = (
{
layerId = m01;
shapes = (
{
closed = 1;
nodes = (
(529,50,l),
(701,1450,l),
(527,1450,l),
(355,50,l)
);
},
{
closed = 1;
nodes = (
(969,50,l),
(1141,1450,l),
(967,1450,l),
(795,50,l)
);
},
{
closed = 1;
nodes = (
(197,903,l),
(1337,903,l),
(1358,1077,l),
(218,1077,l)
);
},
{
closed = 1;
nodes = (
(138,423,l),
(1278,423,l),
(1299,597,l),
(159,597,l)
);
}
);
width = 1496;
}
);
metricRight = "=|numbersign";
unicode = 35;
}
{
glyphname = dollar;
kernLeft = S;
kernRight = S;
layers = (
{
layerId = m01;
shapes = (
{
closed = 1;
nodes = (
(780,-300,l),
(780,1800,l),
(606,1800,l),
(606,-300,l)
);
},
{
ref = S;
}
);
width = 1386;
}
);
metricLeft = "=S";
metricRight = "=S";
unicode = 36;
}
{
glyphname = quotesingle;
kernLeft = quote;
kernRight = quote;
layers = (
{
layerId = m01;
shapes = (
{
closed = 1;
nodes = (
(120,1190,l),
(300,1190,l),
(300,1600,l),
(120,1600,l)
);
}
);
width = 420;
}
);
metricRight = "=|quotesingle";
unicode = 39;
}
{
glyphname = comma;
kernLeft = period;
kernRight = period;
layers = (
{
layerId = m01;
shapes = (
{
closed = 1;
nodes = (
(180,-280,l),
(280,-280,l),
(365,0,l),
(365,185,l),
(180,185,l)
);
}
);
width = 545;
}
);
metricWidth = "=period";
unicode = 44;
}
{
glyphname = hyphen;
kernLeft = hyphen;
kernRight = hyphen;
layers = (
{
layerId = m01;
shapes = (
{
closed = 1;
nodes = (
(100,580,l),
(924,580,l),
(924,760,l),
(100,760,l)
);
}
);
width = 1024;
}
);
metricRight = "=|hyphen";
unicode = 45;
}
{
glyphname = period;
kernLeft = period;
kernRight = period;
layers = (
{
layerId = m01;
shapes = (
{
closed = 1;
nodes = (
(180,0,l),
(365,0,l),
(365,185,l),
(180,185,l)
);
}
);
width = 545;
}
);
metricRight = "=|period";
unicode = 46;
}
{
glyphname = one;
kernLeft = H;
kernRight = H;
layers = (
{
layerId = m01;
shapes = (
{
closed = 1;
nodes = (
(308,1330,l),
(538,1330,l),
(538,100,l),
(718,100,l),
(718,1500,l),
(308,1500,l)
);
},
{
closed = 1;
nodes = (
(200,0,l),
(1000,0,l),
(1000,175,l),
(200,175,l)
);
}
);
width = 1200;
}
);
unicode = 49;
}
{
glyphname = two;
kernLeft = H;
kernRight = H;
layers = (
{
hints = (
{
name = _corner.o_outside;
options = 2;
origin = (0,1);
scale = (-1,1);
type = Corner;
},
{
name = _corner.o_inside;
options = 2;
origin = (0,4);
scale = (-1,1);
type = Corner;
},
{
name = _cap.C_end;
options = 10;
origin = (0,2);
scale = (1,-1);
type = Cap;
},
{
name = _corner.S_inside;
origin = (0,5);
type = Corner;
},
{
name = _corner.S_inside;
origin = (0,11);
type = Corner;
},
{
name = _corner.S_outside;
origin = (0,0);
type = Corner;
},
{
name = _corner.S_outside;
origin = (0,6);
type = Corner;
}
);
layerId = m01;
shapes = (
{
closed = 1;
nodes = (
(1080,810,l),
(1080,1510,l),
(140,1510,l),
(140,1340,l),
(900,1340,l),
(900,910,l),
(150,550,l),
(150,0,l),
(1080,0,l),
(1080,170,l),
(330,170,l),
(330,450,l)
);
}
);
width = 1200;
}
);
unicode = 50;
}
{
glyphname = three;
layers = (
{
hints = (
{
name = _corner.inside_md;
origin = (0,1);
type = Corner;
},
{
name = _corner.inside_md;
options = 2;
origin = (0,2);
scale = (-1,1);
type = Corner;
},
{
name = _corner.inside_md;
origin = (0,5);
type = Corner;
},
{
name = _corner.inside_md;
options = 2;
origin = (0,6);
scale = (-1,1);
type = Corner;
},
{
name = _corner.outside_md;
origin = (0,18);
type = Corner;
},
{
name = _corner.outside_md;
options = 2;
origin = (0,9);
scale = (-1,1);
type = Corner;
},
{
name = _cap.end_lg;
options = 10;
origin = (0,7);
type = Cap;
},
{
name = _cap.end_lg;
options = 10;
origin = (0,19);
scale = (1,-1);
type = Cap;
}
);
layerId = m01;
shapes = (
{
closed = 1;
nodes = (
(110,1330,l),
(920,1330,l),
(920,835,l),
(559,835,l),
(559,665,l),
(930,665,l),
(930,170,l),
(110,170,l),
(110,0,l),
(1100,0,l),
(1100,485,l),
(1095,620,o),
(1085,706,o),
(863,824,c),
(863,676,l),
(1085,794,o),
(1085,880,o),
(1090,1015,c),
(1090,1500,l),
(110,1500,l)
);
}
);
width = 1200;
}
);
unicode = 51;
}
{
glyphname = four;
layers = (
{
layerId = m01;
shapes = (
{
closed = 1;
nodes = (
(830,0,l),
(1010,0,l),
(1010,1020,l),
(830,1020,l)
);
},
{
closed = 1;
nodes = (
(1110,570,l),
(298,570,l),
(785,1500,l),
(582,1500,l),
(100,580,l),
(100,400,l),
(1110,400,l)
);
}
);
width = 1200;
}
);
unicode = 52;
}
{
glyphname = five;
layers = (
{
hints = (
{
name = _corner.o_inside;
origin = (0,4);
type = Corner;
},
{
name = _corner.o_inside;
options = 2;
origin = (0,5);
scale = (-1,1);
type = Corner;
},
{
name = _corner.o_outside;
options = 2;
origin = (0,8);
scale = (-1,1);
type = Corner;
},
{
name = _corner.o_outside;
origin = (0,9);
type = Corner;
},
{
name = _cap.C_end;
options = 2;
origin = (0,6);
type = Cap;
}
);
layerId = m01;
shapes = (
{
closed = 1;
nodes = (
(1060,1330,l),
(1060,1500,l),
(190,1500,l),
(190,730,l),
(930,730,l),
(930,170,l),
(110,170,l),
(110,0,l),
(1100,0,l),
(1100,900,l),
(370,900,l),
(370,1330,l)
);
}
);
width = 1200;
}
);
unicode = 53;
}
{
glyphname = six;
layers = (
{
hints = (
{
name = _corner.O_outside;
origin = (0,2);
type = Corner;
},
{
name = _corner.O_outside;
options = 2;
origin = (0,3);
scale = (-1,1);
type = Corner;
},
{
name = _corner.O_outside;
origin = (0,4);
type = Corner;
},
{
name = _corner.O_outside;
options = 2;
origin = (0,1);
scale = (-1,1);
type = Corner;
},
{
name = _corner.O_inside;
origin = (0,7);
type = Corner;
},
{
name = _corner.O_inside;
options = 2;
origin = (0,8);
scale = (-1,1);
type = Corner;
},
{
name = _corner.O_inside;
origin = (0,9);
type = Corner;
},
{
name = _corner.O_inside;
options = 2;
origin = (0,10);
scale = (-1,1);
type = Corner;
},
{
name = _cap.b_shoulder;
options = 10;
origin = (0,5);
type = Cap;
},
{
name = _cap.C_end;
options = 2;
origin = (0,11);
type = Cap;
}
);
layerId = m01;
shapes = (
{
closed = 1;
nodes = (
(1080,1510,l),
(100,1510,l),
(100,-10,l),
(1100,-10,l),
(1100,950,l),
(380,950,l),
(380,780,l),
(920,780,l),
(920,160,l),
(280,160,l),
(280,1340,l),
(1080,1340,l)
);
}
);
width = 1200;
}
);
unicode = 54;
}
{
glyphname = eight;
kernLeft = zero;
kernRight = zero;
layers = (
{
hints = (
{
name = _corner.o_inside;
origin = (0,1);
type = Corner;
},
{
name = _corner.o_inside;
options = 2;
origin = (0,2);
scale = (-1,1);
type = Corner;
},
{
name = _corner.o_inside;
origin = (1,1);
type = Corner;
},
{
name = _corner.o_inside;
options = 2;
origin = (1,2);
scale = (-1,1);
type = Corner;
},
{
name = _corner.o_outside;
origin = (2,9);
type = Corner;
},
{
name = _corner.o_inside;
origin = (0,3);
type = Corner;
},
{
name = _corner.o_inside;
options = 2;
origin = (0,0);
scale = (-1,1);
type = Corner;
},
{
name = _corner.o_inside;
options = 2;
origin = (1,3);
scale = (-1,1);
type = Corner;
},
{
name = _corner.o_inside;
origin = (1,0);
type = Corner;
},
{
name = _corner.o_outside;
options = 2;
origin = (2,19);
scale = (-1,1);
type = Corner;
},
{
name = _corner.o_outside;
origin = (2,10);
type = Corner;
},
{
name = _corner.o_outside;
options = 2;
origin = (2,0);
scale = (-1,1);
type = Corner;
}
);
layerId = m01;
shapes = (
{
closed = 1;
nodes = (
(280,1330,l),
(910,1330,l),
(910,835,l),
(280,835,l)
);
},
{
closed = 1;
nodes = (
(280,665,l),
(920,665,l),
(920,170,l),
(280,170,l)
);
},
{
closed = 1;
nodes = (
(1090,0,l),
(1090,485,l),
(1085,620,o),
(1045,706,o),
(823,824,c),
(823,676,l),
(1045,794,o),
(1085,880,o),
(1090,1015,c),
(1090,1500,l),
(110,1500,l),
(110,1015,l),
(115,880,o),
(155,794,o),
(377,676,c),
(377,824,l),
(155,706,o),
(115,620,o),
(110,485,c),
(110,0,l)
);
}
);
width = 1200;
}
);
unicode = 56;
}
{
glyphname = question;
layers = (
{
hints = (
{
name = _corner.outside_md;
options = 2;
origin = (1,1);
scale = (-1,1);
type = Corner;
},
{
name = _cap.end_lg;
options = 10;
origin = (1,2);
scale = (1,-1);
type = Cap;
},
{
name = _corner.inside_md;
options = 2;
origin = (1,4);
scale = (-1,1);
type = Corner;
},
{
name = _corner.outside_sm;
origin = (1,0);
type = Corner;
},
{
name = _corner.outside_sm;
origin = (1,6);
type = Corner;
},
{
name = _corner.inside_sm;
origin = (1,9);
scale = (1.5,1.5);
type = Corner;
},
{
name = _corner.inside_sm;
origin = (0,11);
scale = (1.5,1.5);
type = Corner;
},
{
name = _corner.inside_sm;
origin = (1,5);
scale = (1.5,1.5);
type = Corner;
},
{
name = _corner.inside_sm;
origin = (0,11);
scale = (1.5,1.5);
type = Corner;
}
);
layerId = m01;
shapes = (
{
pos = (330,0);
ref = period;
},
{
closed = 1;
nodes = (
(1080,830,l),
(1080,1510,l),
(120,1510,l),
(120,1340,l),
(900,1340,l),
(900,950,l),
(510,730,l),
(510,420,l),
(690,420,l),
(690,610,l)
);
}
);
width = 1200;
}
);
unicode = 63;
}
{
glyphname = A;
kernLeft = A;
kernRight = A;
layers = (
{
layerId = m01;
shapes = (
{
pos = (0,1500);
ref = V;
scale = (1,-1);
},
{
closed = 1;
nodes = (
(277,460,l),
(1163,460,l),
(1103,640,l),
(337,640,l)
);
}
);
width = 1400;
}
);
metricLeft = "=40";
metricRight = "=|V";
unicode = 65;
}
{
glyphname = C;
kernLeft = O;
kernRight = C;
layers = (
{
hints = (
{
name = _corner.O_outside;
origin = (0,2);
type = Corner;
},
{
name = _corner.O_outside;
origin = (0,2);
type = Corner;
},
{
name = _corner.O_outside;
options = 2;
origin = (0,1);
scale = (-1,1);
type = Corner;
},
{
name = _corner.O_inside;
origin = (0,5);
type = Corner;
},
{
name = _corner.O_inside;
options = 2;
origin = (0,6);
scale = (-1,1);
type = Corner;
},
{
name = _cap.C_end;
options = 10;
origin = (0,7);
type = Cap;
},
{
name = _cap.C_end;
options = 10;
origin = (0,3);
scale = (1,-1);
type = Cap;
}
);
layerId = m01;
shapes = (
{
closed = 1;
nodes = (
(1170,1510,l),
(130,1510,l),
(130,-10,l),
(1170,-10,l),
(1170,160,l),
(310,160,l),
(310,1340,l),
(1170,1340,l)
);
}
);
width = 1250;
}
);
metricLeft = "=O";
unicode = 67;
}
{
glyphname = D;
kernLeft = H;
kernRight = O;
layers = (
{
hints = (
{
name = _corner.outside_lg;
options = 2;
origin = (0,1);
scale = (-1,1);
type = Corner;
},
{
name = _corner.outside_lg;
origin = (0,2);
type = Corner;
},
{
name = _corner.inside_lg;
origin = (1,0);
type = Corner;
},
{
name = _corner.inside_lg;
options = 2;
origin = (1,1);
scale = (-1,1);
type = Corner;
}
);
layerId = m01;
shapes = (
{
closed = 1;
nodes = (
(180,0,l),
(1190,0,l),
(1190,1500,l),
(180,1500,l)
);
},
{
closed = 1;
nodes = (
(1010,1330,l),
(1010,170,l),
(360,170,l),
(360,1330,l)
);
}
);
width = 1320;
}
);
metricLeft = H;
metricRight = O;
unicode = 68;
}
{
glyphname = G;
kernLeft = O;
kernRight = O;
layers = (
{
hints = (
{
name = _corner.O_outside;
origin = (0,2);
type = Corner;
},
{
name = _corner.O_outside;
origin = (0,2);
type = Corner;
},
{
name = _corner.O_outside;
options = 2;
origin = (0,1);
scale = (-1,1);
type = Corner;
},
{
name = _corner.O_inside;
origin = (0,9);
type = Corner;
},
{
name = _corner.O_inside;
options = 2;
origin = (0,10);
scale = (-1,1);
type = Corner;
},
{
name = _cap.C_end;
options = 10;
origin = (0,11);
type = Cap;
},
{
name = _corner.O_inside;
origin = (0,8);
type = Corner;
},
{
name = _corner.O_outside;
origin = (0,3);
type = Corner;
}
);
layerId = m01;
shapes = (
{
closed = 1;
nodes = (
(1200,1510,l),
(130,1510,l),
(130,-10,l),
(1200,-10,l),
(1200,820,l),
(720,820,l),
(720,650,l),
(1020,650,l),
(1020,160,l),
(310,160,l),
(310,1340,l),
(1200,1340,l)
);
}
);
width = 1330;
}
);
metricLeft = "=O";
metricRight = "=O";
unicode = 71;
}
{
glyphname = H;
kernLeft = H;
kernRight = H;
layers = (
{
anchors = (
{
name = bottom;
pos = (740,0);
},
{
name = top;
pos = (740,1500);
}
);
layerId = m01;
shapes = (
{
closed = 1;
nodes = (
(180,0,l),
(360,0,l),
(360,1500,l),
(180,1500,l)
);
},
{
closed = 1;
nodes = (
(1120,0,l),
(1300,0,l),
(1300,1500,l),
(1120,1500,l)
);
},
{
closed = 1;
nodes = (
(198,680,l),
(1284,680,l),
(1284,860,l),
(198,860,l)
);
}
);
width = 1480;
}
);
metricRight = "=|H";
unicode = 72;
}
{
glyphname = I;
kernLeft = H;
kernRight = H;
layers = (
{
layerId = m01;
shapes = (
{
closed = 1;
nodes = (
(180,0,l),
(360,0,l),
(360,1500,l),
(180,1500,l)
);
}
);
width = 540;
}
);
metricLeft = "=H";
metricRight = "=H";
unicode = 73;
}
{
glyphname = J;
kernLeft = J;
kernRight = H;
layers = (
{
hints = (
{
name = _corner.O_outside;
options = 2;
origin = (0,4);
scale = (-1,1);
type = Corner;
},
{
name = _corner.O_inside;
options = 2;
origin = (0,1);
scale = (-1,1);
type = Corner;
},
{
name = _cap.C_end;
options = 2;
origin = (0,2);
type = Cap;
}
);
layerId = m01;
shapes = (
{
closed = 1;
nodes = (
(880,1500,l),
(880,160,l),
(60,160,l),
(60,-10,l),
(1060,-10,l),
(1060,1500,l)
);
}
);
width = 1240;
}
);
metricRight = "=H";
unicode = 74;
}
{
glyphname = L;
kernLeft = H;
kernRight = L;
layers = (
{
layerId = m01;
shapes = (
{
closed = 1;
nodes = (
(180,0,l),
(360,0,l),
(360,1500,l),
(180,1500,l)
);
},
{
closed = 1;
nodes = (
(198,0,l),
(1134,0,l),
(1134,170,l),
(198,170,l)
);
}
);
width = 1194;
}
);
metricLeft = "=H";
unicode = 76;
}
{
glyphname = M;
kernLeft = H;
kernRight = H;
layers = (
{
hints = (
{
name = _corner.v;
origin = (0,1);
type = Corner;
},
{
name = _corner.v;
origin = (0,4);
type = Corner;
}
);
layerId = m01;
shapes = (
{
closed = 1;
nodes = (
(360,0,l),
(360,1156,l),
(705,542,l),
(895,542,l),
(1240,1156,l),
(1240,0,l),
(1420,0,l),
(1420,1500,l),
(1230,1500,l),
(800,735,l),
(370,1500,l),
(180,1500,l),
(180,0,l)
);
}
);
width = 1600;
}
);
metricLeft = "=H";
metricRight = "=H";
unicode = 77;
}
{
glyphname = N;
kernLeft = H;
kernRight = H;
layers = (
{
hints = (
{
name = _corner.letter_v;
origin = (0,1);
type = Corner;
},
{
name = _corner.letter_v;
origin = (0,6);
type = Corner;
}
);
layerId = m01;
shapes = (
{
closed = 1;
nodes = (
(360,0,l),
(360,1172,l),
(1080,0,l),
(1270,0,l),
(1270,1500,l),
(1090,1500,l),
(1090,328,l),
(370,1500,l),
(180,1500,l),
(180,0,l)
);
}
);
width = 1450;
}
);
metricLeft = "=H";
metricRight = "=H";
unicode = 78;
}
{
glyphname = O;
kernLeft = O;
kernRight = O;
layers = (
{
hints = (
{
name = _corner.outside_lg;
origin = (0,0);
type = Corner;
},
{
name = _corner.outside_lg;
origin = (0,0);
type = Corner;
},
{
name = _corner.outside_lg;
options = 2;
origin = (0,1);
scale = (-1,1);
type = Corner;
},
{
name = _corner.outside_lg;
origin = (0,2);
type = Corner;
},
{
name = _corner.outside_lg;
options = 2;
origin = (0,3);
scale = (-1,1);
type = Corner;
},
{
name = _corner.inside_lg;
origin = (1,0);
type = Corner;
},
{
name = _corner.inside_lg;
options = 2;
origin = (1,1);
scale = (-1,1);
type = Corner;
},
{
name = _corner.inside_lg;
origin = (1,2);
type = Corner;
},
{
name = _corner.inside_lg;
options = 2;
origin = (1,3);
scale = (-1,1);
type = Corner;
}
);
layerId = m01;
shapes = (
{
closed = 1;
nodes = (
(130,-10,l),
(1210,-10,l),
(1210,1510,l),
(130,1510,l)
);
},
{
closed = 1;
nodes = (
(1030,1340,l),
(1030,160,l),
(310,160,l),
(310,1340,l)
);
}
);
width = 1340;
}
);
metricRight = "=|O";
unicode = 79;
}
{
glyphname = P;
kernLeft = H;
kernRight = P;
layers = (
{
hints = (
{
name = _corner.o_outside;
options = 2;
origin = (0,6);
scale = (-1,1);
type = Corner;
},
{
name = _corner.o_outside;
origin = (0,7);
type = Corner;
},
{
name = _corner.o_inside;
origin = (0,2);
type = Corner;
},
{
name = _corner.o_inside;
options = 2;
origin = (0,3);
scale = (-1,1);
type = Corner;
}
);
layerId = m01;
shapes = (
{
closed = 1;
nodes = (
(360,0,l),
(360,1340,l),
(1060,1340,l),
(1060,780,l),
(339,780,l),
(339,610,l),
(1230,610,l),
(1230,1510,l),
(180,1510,l),
(180,0,l)
);
}
);
width = 1360;
}
);
metricLeft = "=H";
metricRight = "=|O";
unicode = 80;
}
{
glyphname = R;
layers = (
{
layerId = m01;
shapes = (
{
ref = P;
},
{
closed = 1;
nodes = (
(1016,0,l),
(1210,0,l),
(949,653,l),
(755,653,l)
);
}
);
width = 1360;
}
);
metricLeft = "=P";
metricRight = "=P";
unicode = 82;
}
{
glyphname = S;
kernLeft = O;
kernRight = O;
layers = (
{
hints = (
{
name = _corner.o_outside;
options = 2;
origin = (0,1);
scale = (-1,1);
type = Corner;
},
{
name = _corner.S_outside;
origin = (0,2);
type = Corner;
},
{
name = _corner.S_inside;
origin = (0,3);
type = Corner;
},
{
name = _corner.o_inside;
options = 2;
origin = (0,4);
scale = (-1,1);
type = Corner;
},
{
name = _cap.C_end;
options = 10;
origin = (0,5);
type = Cap;
},
{
name = _corner.o_outside;
options = 2;
origin = (0,7);
scale = (-1,1);
type = Corner;
},
{
name = _corner.S_outside;
origin = (0,8);
type = Corner;
},
{
name = _corner.S_inside;
origin = (0,9);
type = Corner;
},
{
name = _corner.o_inside;
options = 2;
origin = (0,10);
scale = (-1,1);
type = Corner;
},
{
name = _cap.C_end;
options = 10;
origin = (0,11);
type = Cap;
}
);
layerId = m01;
shapes = (
{
closed = 1;
nodes = (
(1196,1500,l),
(183,1500,l),
(183,735,l),
(1003,619,l),
(1003,170,l),
(130,170,l),
(130,0,l),
(1183,0,l),
(1183,765,l),
(363,881,l),
(363,1330,l),
(1196,1330,l)
);
}
);
width = 1326;
}
);
metricLeft = "=O";
metricRight = "=O";
unicode = 83;
}
{
glyphname = T;
kernRight = T;
layers = (
{
layerId = m01;
shapes = (
{
closed = 1;
nodes = (
(550,0,l),
(730,0,l),
(730,1500,l),
(550,1500,l)
);
},
{
closed = 1;
nodes = (
(70,1325,l),
(1210,1325,l),
(1210,1500,l),
(70,1500,l)
);
}
);
width = 1280;
}
);
metricRight = "=|T";
unicode = 84;
}
{
glyphname = V;
kernLeft = V;
kernRight = V;
layers = (
{
hints = (
{
name = _corner.v;
options = 2;
origin = (0,3);
type = Corner;
}
);
layerId = m01;
shapes = (
{
closed = 1;
nodes = (
(807,0,l),
(1400,1500,l),
(1208,1500,l),
(720,261,l),
(232,1500,l),
(40,1500,l),
(633,0,l)
);
}
);
width = 1440;
}
);
metricLeft = "=40";
metricRight = "=|V";
unicode = 86;
}
{
glyphname = W;
kernLeft = V;
kernRight = V;
layers = (
{
hints = (
{
name = _corner.letter_v;
options = 2;
origin = (0,9);
type = Corner;
},
{
name = _corner.letter_v;
options = 2;
origin = (0,6);
type = Corner;
},
{
name = _corner.letter_v;
options = 2;
origin = (0,1);
type = Corner;
}
);
layerId = m01;
shapes = (
{
closed = 1;
nodes = (
(688,0,l),
(1030,1194,l),
(1372,0,l),
(1567,0,l),
(2020,1500,l),
(1832,1500,l),
(1473,304,l),
(1128,1500,l),
(932,1500,l),
(587,304,l),
(228,1500,l),
(40,1500,l),
(493,0,l)
);
}
);
width = 2060;
}
);
metricLeft = "=V";
metricRight = "=V";
unicode = 87;
}
{
glyphname = a;
kernLeft = o;
kernRight = o;
layers = (
{
hints = (
{
name = _corner.o_outside_small;
options = 2;
origin = (0,1);
scale = (-1,1);
type = Corner;
},
{
name = _corner.o_outside_small;
origin = (0,2);
type = Corner;
},
{
name = _cap.b_shoulder;
options = 10;
origin = (0,3);
type = Cap;
},
{
name = _corner.o_inside_small;
origin = (0,5);
type = Corner;
},
{
name = _corner.o_inside_small;
options = 2;
origin = (0,6);
scale = (-1,1);
type = Corner;
},
{
name = _corner.o_outside;
origin = (1,1);
type = Corner;
},
{
name = _cap.c_end;
options = 10;
origin = (1,2);
scale = (1,-1);
type = Cap;
},
{
name = _corner.o_inside;
origin = (1,4);
type = Corner;
},
{
name = _cap.a_shoulder;
options = 10;
origin = (0,7);
scale = (1,-1);
type = Cap;
}
);
layerId = m01;
shapes = (
{
closed = 1;
nodes = (
(804,670,l),
(125,670,l),
(125,0,l),
(764,0,l),
(764,170,l),
(300,170,l),
(300,505,l),
(804,505,l)
);
},
{
closed = 1;
nodes = (
(1039,0,l),
(1039,1100,l),
(135,1100,l),
(135,940,l),
(864,940,l),
(864,0,l)
);
}
);
width = 1164;
}
);
metricLeft = "=o";
metricRight = "=o";
unicode = 97;
}
{
glyphname = b;
kernLeft = H;
kernRight = o;
layers = (
{
hints = (
{
name = _corner.o_inside;
origin = (1,1);
type = Corner;
},
{
name = _corner.o_outside;
origin = (1,6);
type = Corner;
},
{
name = _cap.b_shoulder;
options = 9;
origin = (1,7);
type = Cap;
},
{
name = _cap.b_shoulder;
options = 10;
origin = (1,3);
scale = (1.02941,-1);
type = Cap;
},
{
name = _corner.o_inside;
origin = (1,2);
type = Corner;
},
{
name = _corner.o_outside;
origin = (1,5);
type = Corner;
}
);
layerId = m01;
shapes = (
{
closed = 1;
nodes = (
(160,0,l),
(335,0,l),
(335,1500,l),
(160,1500,l)
);
},
{
closed = 1;
nodes = (
(435,930,l),
(895,930,l),
(895,175,l),
(435,175,l),
(435,0,l),
(1070,0,l),
(1070,1100,l),
(435,1100,l)
);
}
);
width = 1195;
}
);
metricLeft = "=n";
metricRight = "=o";
unicode = 98;
}
{
glyphname = c;
kernLeft = o;
kernRight = o;
layers = (
{
hints = (
{
name = _corner.o_outside;
origin = (0,2);
type = Corner;
},
{
name = _corner.o_outside;
options = 2;
origin = (0,1);
scale = (-1,1);
type = Corner;
},
{
name = _corner.o_inside;
origin = (0,5);
type = Corner;
},
{
name = _corner.o_inside;
options = 2;
origin = (0,6);
scale = (-1,1);
type = Corner;
},
{
name = _cap.c_end;
options = 10;
origin = (0,7);
type = Cap;
},
{
name = _cap.c_end;
options = 10;
origin = (0,3);
scale = (1,-1);
type = Cap;
}
);
layerId = m01;
shapes = (
{
closed = 1;
nodes = (
(984,1100,l),
(125,1100,l),
(125,0,l),
(984,0,l),
(984,170,l),
(300,170,l),
(300,930,l),
(984,930,l)
);
}
);
width = 1044;
}
);
metricLeft = "=o";
unicode = 99;
}
{
glyphname = e;
kernLeft = o;
kernRight = o;
layers = (
{
hints = (
{
name = _corner.outside_md;
origin = (0,5);
type = Corner;
},
{
name = _corner.outside_md;
origin = (0,3);
type = Corner;
},
{
name = _corner.outside_md;
options = 2;
origin = (0,4);
scale = (-1,1);
type = Corner;
},
{
name = _corner.inside_md;
origin = (0,10);
type = Corner;
},
{
name = _corner.inside_md;
origin = (0,8);
type = Corner;
},
{
name = _corner.inside_md;
options = 2;
origin = (0,9);
scale = (-1,1);
type = Corner;
},
{
origin = (0,4);
target = (0,9);
type = Stem;
},
{
name = _cap.end_md;
options = 10;
origin = (0,6);
scale = (1,-1);
type = Cap;
}
);
layerId = m01;
shapes = (
{
closed = 1;
nodes = (
(218,641,l),
(218,472,l),
(1025,472,l),
(1025,1100,l),
(125,1100,l),
(125,0,l),
(1018,0,l),
(1018,170,l),
(300,170,l),
(300,930,l),
(850,930,l),
(850,641,l)
);
}
);
width = 1150;
}
);
metricLeft = "=o";
metricRight = "=o";
unicode = 101;
}
{
glyphname = f;
layers = (
{
hints = (
{
name = _corner.o_outside;
origin = (0,3);
type = Corner;
},
{
name = _corner.o_inside;
origin = (0,0);
type = Corner;
}
);
layerId = m01;
shapes = (
{
closed = 1;
nodes = (
(362,1330,l),
(723,1330,l),
(723,1500,l),
(187,1500,l),
(187,0,l),
(362,0,l)
);
},
{
closed = 1;
nodes = (
(70,930,l),
(663,930,l),
(663,1100,l),
(70,1100,l)
);
}
);
width = 783;
}
);
metricLeft = "=t";
unicode = 102;
}
{
glyphname = g;
kernLeft = o;
kernRight = q;
layers = (
{
hints = (
{
name = _corner.o_inside;
options = 1;
origin = (1,5);
scale = (-1,1);
type = Corner;
},
{
name = _corner.o_inside;
options = 1;
origin = (1,4);
scale = (-1,1);
type = Corner;
},
{
name = _cap.b_shoulder;
options = 10;
origin = (1,2);
scale = (-1,-1);
target = (1,1);
type = Cap;
},
{
name = _corner.o_outside;
options = 1;
origin = (1,1);
scale = (-1,1);
type = Corner;
},
{
name = _corner.o_outside;
options = 1;
origin = (1,0);
scale = (-1,1);
type = Corner;
},
{
name = _cap.b_shoulder;
options = 8;
origin = (1,6);
scale = (-1,1);
target = (1,1);
type = Cap;
},
{
name = _cap.c_end;
options = 10;
origin = (0,2);
type = Cap;
},
{
name = _corner.o_inside;
origin = (0,1);
type = Corner;
},
{
name = _corner.o_outside;
origin = (0,4);
type = Corner;
}
);
layerId = m01;
shapes = (
{
closed = 1;
nodes = (
(860,1100,l),
(860,-300,l),
(125,-300,l),
(125,-460,l),
(1035,-460,l),
(1035,1100,l)
);
},
{
closed = 1;
nodes = (
(125,1100,l),
(125,0,l),
(760,0,l),
(760,175,l),
(300,175,l),
(300,930,l),
(760,930,l),
(760,1100,l)
);
}
);
width = 1195;
}
);
unicode = 103;
}
{
glyphname = h;
kernLeft = H;
kernRight = n;
layers = (
{
hints = (
{
name = _corner.o_inside;
origin = (1,1);
type = Corner;
},
{
name = _corner.o_outside;
origin = (1,4);
type = Corner;
},
{
name = _cap.n_shoulder;
options = 9;
origin = (1,5);
type = Cap;
}
);
layerId = m01;
shapes = (
{
closed = 1;
nodes = (
(160,0,l),
(335,0,l),
(335,1500,l),
(160,1500,l)
);
},
{
closed = 1;
nodes = (
(435,930,l),
(875,930,l),
(875,0,l),
(1050,0,l),
(1050,1100,l),
(435,1100,l)
);
}
);
width = 1210;
}
);
metricLeft = "=n";
metricRight = "=n";
unicode = 104;
}
{
glyphname = k;
kernLeft = H;
kernRight = k;
layers = (
{
anchors = (
{
name = bottom;
pos = (534,0);
}
);
layerId = m01;
shapes = (
{
closed = 1;
nodes = (
(160,0,l),
(335,0,l),
(335,1500,l),
(160,1500,l)
);
},
{
closed = 1;
nodes = (
(398,685,l),
(325,685,l),
(325,475,l),
(398,475,l),
(820,0,l),
(1057,0,l),
(478,644,l),
(477,518,l),
(1049,1100,l),
(800,1100,l)
);
}
);
width = 1067;
}
);
metricLeft = "=n";
unicode = 107;
}
{
glyphname = l;
kernLeft = H;
kernRight = n;
layers = (
{
layerId = m01;
shapes = (
{
closed = 1;
nodes = (
(160,0,l),
(335,0,l),
(335,1500,l),
(160,1500,l)
);
}
);
width = 495;
}
);
metricLeft = "=n";
metricRight = "=n";
unicode = 108;
}
{
glyphname = m;
kernLeft = n;
kernRight = n;
layers = (
{
hints = (
{
name = _corner.inside_md;
origin = (1,1);
scale = (0.7,0.7);
type = Corner;
},
{
name = _corner.outside_md;
origin = (1,4);
scale = (0.8,0.8);
type = Corner;
},
{
name = _cap.letter_n;
options = 9;
origin = (1,5);
type = Cap;
},
{
name = _corner.inside_md;
origin = (2,1);
scale = (0.7,0.7);
type = Corner;
},
{
name = _corner.outside_md;
origin = (2,4);
scale = (0.8,0.8);
type = Corner;
},
{
name = _cap.letter_m;
options = 2;
origin = (2,5);
type = Cap;
}
);
layerId = m01;
shapes = (
{
closed = 1;
nodes = (
(160,0,l),
(335,0,l),
(335,1100,l),
(160,1100,l)
);
},
{
closed = 1;
nodes = (
(435,930,l),
(775,930,l),
(775,0,l),
(950,0,l),
(950,1100,l),
(435,1100,l)
);
},
{
closed = 1;
nodes = (
(1050,930,l),
(1390,930,l),
(1390,0,l),
(1565,0,l),
(1565,1100,l),
(1050,1100,l)
);
}
);
width = 1725;
}
);
metricLeft = "=n";
metricRight = "=n";
unicode = 109;
}
{
glyphname = n;
kernLeft = n;
kernRight = n;
layers = (
{
anchors = (
{
name = top;
pos = (625,1100);
}
);
hints = (
{
name = _corner.inside_md;
origin = (1,1);
type = Corner;
},
{
name = _corner.outside_md;
origin = (1,4);
type = Corner;
},
{
name = _cap.letter_n;
options = 9;
origin = (1,5);
type = Cap;
}
);
layerId = m01;
shapes = (
{
closed = 1;
nodes = (
(160,0,l),
(335,0,l),
(335,1100,l),
(160,1100,l)
);
},
{
closed = 1;
nodes = (
(435,930,l),
(875,930,l),
(875,0,l),
(1050,0,l),
(1050,1100,l),
(435,1100,l)
);
}
);
width = 1210;
}
);
metricRight = "=|n";
unicode = 110;
}
{
glyphname = r;
kernLeft = n;
kernRight = r;
layers = (
{
anchors = (
{
name = top;
pos = (515,1100);
}
);
hints = (
{
name = _cap.letter_n;
options = 9;
origin = (1,3);
type = Cap;
},
{
name = _cap.letter_r;
options = 2;
origin = (1,1);
type = Cap;
}
);
layerId = m01;
shapes = (
{
closed = 1;
nodes = (
(160,0,l),
(335,0,l),
(335,1100,l),
(160,1100,l)
);
},
{
closed = 1;
nodes = (
(435,930,l),
(788,930,l),
(788,1100,l),
(435,1100,l)
);
}
);
width = 948;
}
);
metricLeft = "=n";
unicode = 114;
}
{
glyphname = s;
kernLeft = o;
kernRight = o;
layers = (
{
hints = (
{
name = _corner.o_outside_small;
options = 2;
origin = (0,1);
scale = (-1,1);
type = Corner;
},
{
name = _corner.o_inside_small;
options = 2;
origin = (0,10);
scale = (-1,1);
type = Corner;
},
{
name = _cap.c_end;
options = 10;
origin = (0,11);
type = Cap;
},
{
name = _corner.o_outside_small;
options = 2;
origin = (0,7);
scale = (-1,1);
type = Corner;
},
{
name = _corner.o_inside_small;
options = 2;
origin = (0,4);
scale = (-1,1);
type = Corner;
},
{
name = _cap.c_end;
options = 10;
origin = (0,5);
type = Cap;
},
{
name = _corner.s_inside;
origin = (0,3);
type = Corner;
},
{
name = _corner.s_inside;
origin = (0,9);
type = Corner;
},
{
name = _corner.s_outside;
origin = (0,2);
type = Corner;
},
{
name = _corner.s_outside;
origin = (0,8);
type = Corner;
}
);
layerId = m01;
shapes = (
{
closed = 1;
nodes = (
(1041,1100,l),
(158,1100,l),
(158,485,l),
(873,452,l),
(873,170,l),
(125,170,l),
(125,0,l),
(1048,0,l),
(1048,615,l),
(333,648,l),
(333,930,l),
(1041,930,l)
);
}
);
width = 1173;
}
);
metricLeft = "=o";
metricRight = "=o";
unicode = 115;
}
{
glyphname = t;
kernLeft = t;
kernRight = t;
layers = (
{
hints = (
{
name = _corner.o_outside;
origin = (0,1);
type = Corner;
},
{
name = _corner.o_inside;
origin = (0,4);
type = Corner;
}
);
layerId = m01;
shapes = (
{
closed = 1;
nodes = (
(217,1500,l),
(217,0,l),
(773,0,l),
(773,170,l),
(392,170,l),
(392,1500,l)
);
},
{
closed = 1;
nodes = (
(70,930,l),
(773,930,l),
(773,1100,l),
(70,1100,l)
);
}
);
width = 903;
}
);
unicode = 116;
}
{
glyphname = v;
kernLeft = v;
kernRight = v;
layers = (
{
hints = (
{
name = _corner.letter_v;
options = 2;
origin = (0,3);
type = Corner;
}
);
layerId = m01;
shapes = (
{
closed = 1;
nodes = (
(657,0,l),
(1100,1100,l),
(912,1100,l),
(570,235,l),
(228,1100,l),
(40,1100,l),
(483,0,l)
);
}
);
width = 1140;
}
);
metricLeft = "=x";
metricRight = "=x";
unicode = 118;
}
{
glyphname = w;
kernLeft = v;
kernRight = v;
layers = (
{
hints = (
{
name = _corner.v;
options = 2;
origin = (0,9);
type = Corner;
},
{
name = _corner.v;
options = 2;
origin = (0,6);
type = Corner;
},
{
name = _corner.v;
options = 2;
origin = (0,1);
type = Corner;
}
);
layerId = m01;
shapes = (
{
closed = 1;
nodes = (
(578,0,l),
(830,834,l),
(1082,0,l),
(1277,0,l),
(1620,1100,l),
(1435,1100,l),
(1183,284,l),
(928,1100,l),
(732,1100,l),
(477,284,l),
(225,1100,l),
(40,1100,l),
(383,0,l)
);
}
);
width = 1660;
}
);
metricLeft = "=v";
metricRight = "=v";
unicode = 119;
}
{
glyphname = x;
kernLeft = x;
kernRight = x;
layers = (
{
layerId = m01;
shapes = (
{
closed = 1;
nodes = (
(980,0,l),
(577,617,l),
(577,483,l),
(980,1100,l),
(770,1100,l),
(466,616,l),
(554,616,l),
(250,1100,l),
(40,1100,l),
(443,483,l),
(443,617,l),
(40,0,l),
(250,0,l),
(554,484,l),
(466,484,l),
(770,0,l)
);
}
);
width = 1020;
}
);
metricRight = "=|x";
unicode = 120;
}
{
glyphname = y;
kernLeft = v;
kernRight = v;
layers = (
{
layerId = m01;
shapes = (
{
closed = 1;
nodes = (
(972,1100,l),
(1160,1100,l),
(532,-460,l),
(353,-460,l),
(543,0,l),
(483,0,l),
(40,1100,l),
(228,1100,l),
(588,191,l),
(612,191,l)
);
}
);
width = 1200;
}
);
metricLeft = "=v";
metricRight = "=v";
unicode = 121;
}
{
glyphname = braceleft;
kernLeft = parenleft;
kernRight = parenleft;
layers = (
{
hints = (
{
name = _corner.outside_lg;
options = 2;
origin = (0,1);
scale = (-1,1);
type = Corner;
},
{
name = _corner.inside_lg;
options = 2;
origin = (0,17);
scale = (-1,1);
type = Corner;
},
{
name = _corner.inside_sm;
origin = (0,2);
scale = (2,2);
type = Corner;
},
{
name = _corner.outside_lg;
options = 2;
origin = (0,6);
scale = (-1,1);
type = Corner;
},
{
name = _corner.inside_sm;
origin = (0,5);
scale = (2,2);
type = Corner;
},
{
name = _corner.inside_lg;
options = 2;
origin = (0,9);
scale = (-1,1);
type = Corner;
}
);
layerId = m01;
shapes = (
{
closed = 1;
nodes = (
(1050,1920,l),
(460,1920,l),
(460,840,l),
(180,840,l),
(180,660,l),
(460,660,l),
(460,-410,l),
(1050,-410,l),
(1050,-240,l),
(640,-240,l),
(640,500,ls),
(640,620,o),
(610,696,o),
(530,749,c),
(610,799,o),
(640,870,o),
(640,990,cs),
(640,1750,l),
(1050,1750,l)
);
}
);
width = 1100;
}
);
metricLeft = "=parenleft";
metricRight = "=parenleft";
unicode = 123;
}
{
glyphname = asciitilde;
layers = (
{
layerId = m01;
shapes = (
{
closed = 1;
nodes = (
(250,501,l),
(396,659,o),
(506,680,o),
(660,575,cs),
(874,425,o),
(1097,479,o),
(1278,687,c),
(1150,799,l),
(1004,641,o),
(894,620,o),
(740,725,cs),
(526,875,o),
(303,821,o),
(122,613,c)
);
}
);
width = 1400;
}
);
unicode = 126;
}
{
glyphname = cent;
kernLeft = o;
kernRight = o;
layers = (
{
layerId = m01;
shapes = (
{
ref = c;
},
{
closed = 1;
nodes = (
(660,-200,l),
(660,1300,l),
(486,1300,l),
(486,-200,l)
);
}
);
width = 1044;
}
);
metricLeft = "=c";
metricRight = "=c";
unicode = 162;
}
{
glyphname = sterling;
kernLeft = O;
kernRight = O;
layers = (
{
hints = (
{
name = _corner.outside_lg;
options = 2;
origin = (0,1);
scale = (-1,1);
type = Corner;
},
{
name = _corner.inside_lg;
options = 2;
origin = (0,6);
scale = (-1,1);
type = Corner;
},
{
name = _cap.end_md;
options = 10;
origin = (0,7);
type = Cap;
}
);
layerId = m01;
shapes = (
{
closed = 1;
nodes = (
(1230,1510,l),
(330,1510,l),
(330,0,l),
(1250,0,l),
(1250,170,l),
(510,170,l),
(510,1340,l),
(1230,1340,l)
);
},
{
piece = {
Width = 800;
};
pos = (130,0);
ref = _part.dash;
}
);
width = 1330;
}
);
metricLeft = "=C";
metricRight = "=C";
unicode = 163;
}
{
glyphname = currency;
layers = (
{
layerId = m01;
shapes = (
{
closed = 1;
nodes = (
(841,390,o),
(1001,550,o),
(1001,750,cs),
(1001,950,o),
(841,1110,o),
(641,1110,cs),
(441,1110,o),
(281,950,o),
(281,750,cs),
(281,550,o),
(441,390,o),
(641,390,cs)
);
},
{
closed = 1;
nodes = (
(530,550,o),
(441,639,o),
(441,750,cs),
(441,861,o),
(530,950,o),
(641,950,cs),
(752,950,o),
(841,861,o),
(841,750,cs),
(841,639,o),
(752,550,o),
(641,550,cs)
);
},
{
closed = 1;
nodes = (
(243,229,l),
(526,512,l),
(403,635,l),
(120,352,l)
);
},
{
closed = 1;
nodes = (
(879,865,l),
(1162,1148,l),
(1039,1271,l),
(756,988,l)
);
},
{
closed = 1;
nodes = (
(120,1148,l),
(403,865,l),
(526,988,l),
(243,1271,l)
);
},
{
closed = 1;
nodes = (
(756,512,l),
(1039,229,l),
(1162,352,l),
(879,635,l)
);
}
);
width = 1282;
}
);
metricRight = "=|currency";
unicode = 164;
}
{
glyphname = copyright;
layers = (
{
hints = (
{
name = _corner.outside_md;
options = 2;
origin = (1,1);
scale = (-1,1);
type = Corner;
},
{
name = _corner.outside_md;
origin = (1,2);
type = Corner;
},
{
name = _cap.end_md;
options = 10;
origin = (1,3);
scale = (1,-1);
type = Cap;
},
{
name = _corner.inside_md;
origin = (1,5);
type = Corner;
},
{
name = _corner.inside_md;
options = 2;
origin = (1,6);
scale = (-1,1);
type = Corner;
},
{
name = _cap.end_md;
options = 10;
origin = (1,7);
type = Cap;
}
);
layerId = m01;
shapes = (
{
closed = 1;
nodes = (
(1243,-25,o),
(1590,321,o),
(1590,750,cs),
(1590,1178,o),
(1243,1525,o),
(815,1525,cs),
(386,1525,o),
(40,1178,o),
(40,750,cs),
(40,321,o),
(386,-25,o),
(815,-25,cs)
);
},
{
closed = 1;
nodes = (
(1154,1200,l),
(395,1200,l),
(395,300,l),
(1154,300,l),
(1154,470,l),
(570,470,l),
(570,1030,l),
(1154,1030,l)
);
},
{
closed = 1;
nodes = (
(475,135,o),
(200,410,o),
(200,750,cs),
(200,1090,o),
(475,1365,o),
(815,1365,cs),
(1155,1365,o),
(1430,1090,o),
(1430,750,cs),
(1430,410,o),
(1155,135,o),
(815,135,cs)
);
}
);
width = 1630;
}
);
metricRight = "=|copyright";
unicode = 169;
}
{
glyphname = micro;
kernLeft = n;
kernRight = n;
layers = (
{
layerId = m01;
shapes = (
{
ref = u;
},
{
closed = 1;
nodes = (
(334,-420,l),
(334,480,l),
(160,480,l),
(160,-420,l)
);
}
);
width = 1210;
}
);
metricLeft = "=u";
metricRight = "=u";
unicode = 181;
}
{
glyphname = ae;
kernLeft = o;
kernRight = o;
layers = (
{
hints = (
{
name = _corner.outside_md;
options = 2;
origin = (0,1);
scale = (-0.75,0.75);
type = Corner;
},
{
name = _corner.outside_md;
origin = (0,2);
scale = (0.75,0.75);
type = Corner;
},
{
name = _corner.inside_md;
origin = (0,9);
scale = (0.6,0.6);
type = Corner;
},
{
name = _corner.inside_md;
options = 2;
origin = (0,10);
scale = (-0.6,0.6);
type = Corner;
},
{
name = _corner.outside_md;
origin = (0,4);
type = Corner;
},
{
name = _cap.end_md;
options = 10;
origin = (0,5);
scale = (1,-1);
type = Cap;
},
{
name = _corner.inside_md;
origin = (0,7);
type = Corner;
},
{
name = _corner.inside_md;
origin = (0,8);
scale = (0.6,0.6);
type = Corner;
},
{
name = _corner.outside_md;
origin = (0,3);
scale = (0.75,0.75);
type = Corner;
},
{
name = _corner.outside_md;
origin = (1,3);
type = Corner;
},
{
name = _corner.outside_md;
options = 2;
origin = (1,4);
scale = (-1,1);
type = Corner;
},
{
name = _corner.outside_md;
origin = (1,5);
type = Corner;
},
{
name = _cap.end_md;
options = 10;
origin = (1,6);
scale = (1,-1);
type = Cap;
},
{
name = _corner.inside_md;
origin = (1,8);
type = Corner;
},
{
name = _corner.inside_md;
options = 2;
origin = (1,9);
scale = (-1,1);
type = Corner;
},
{
name = _corner.inside_md;
origin = (1,10);
type = Corner;
}
);
layerId = m01;
shapes = (
{
closed = 1;
nodes = (
(820,645,l),
(125,645,l),
(125,0,l),
(955,0,l),
(955,1100,l),
(135,1100,l),
(135,940,l),
(780,940,l),
(780,170,l),
(300,170,l),
(300,480,l),
(820,480,l)
);
},
{
closed = 1;
nodes = (
(873,646,l),
(873,481,l),
(1640,481,l),
(1640,1100,l),
(780,1100,l),
(780,0,l),
(1633,0,l),
(1633,170,l),
(955,170,l),
(955,930,l),
(1465,930,l),
(1465,646,l)
);
}
);
width = 1765;
}
);
metricLeft = "=a";
metricRight = "=e";
unicode = 230;
}
{
glyphname = dcroat;
kernLeft = o;
kernRight = H;
layers = (
{
layerId = m01;
shapes = (
{
ref = d;
},
{
closed = 1;
nodes = (
(594,1196,l),
(1144,1196,l),
(1144,1350,l),
(594,1350,l)
);
}
);
width = 1304;
}
);
metricLeft = "=d";
metricRight = "=d";
unicode = 273;
}
{
glyphname = hbar;
kernLeft = H;
kernRight = o;
layers = (
{
layerId = m01;
shapes = (
{
pos = (62,0);
ref = h;
},
{
closed = 1;
nodes = (
(112,1196,l),
(662,1196,l),
(662,1350,l),
(112,1350,l)
);
}
);
width = 1272;
}
);
metricLeft = "=h*0.7";
metricRight = "=h";
unicode = 295;
}
{
glyphname = idotless;
layers = (
{
layerId = m01;
shapes = (
{
closed = 1;
nodes = (
(160,0,l),
(335,0,l),
(335,1100,l),
(160,1100,l)
);
}
);
width = 495;
}
);
metricLeft = "=n";
metricRight = "=n";
unicode = 305;
}
{
glyphname = oe;
kernLeft = o;
kernRight = o;
layers = (
{
hints = (
{
name = _corner.outside_md;
origin = (0,3);
type = Corner;
},
{
name = _corner.outside_md;
options = 2;
origin = (0,4);
scale = (-1,1);
type = Corner;
},
{
name = _corner.outside_md;
origin = (0,5);
type = Corner;
},
{
name = _cap.end_md;
options = 10;
origin = (0,6);
scale = (1,-1);
type = Cap;
},
{
name = _corner.inside_md;
origin = (0,8);
type = Corner;
},
{
name = _corner.inside_md;
options = 2;
origin = (0,9);
scale = (-1,1);
type = Corner;
},
{
name = _corner.inside_md;
origin = (0,10);
type = Corner;
},
{
name = _corner.outside_md;
origin = (1,0);
type = Corner;
},
{
name = _corner.outside_md;
options = 2;
origin = (1,1);
scale = (-1,1);
type = Corner;
},
{
name = _corner.outside_md;
origin = (1,2);
type = Corner;
},
{
name = _corner.outside_md;
options = 2;
origin = (1,3);
scale = (-1,1);
type = Corner;
},
{
name = _corner.inside_md;
origin = (2,0);
type = Corner;
},
{
name = _corner.inside_md;
options = 2;
origin = (2,1);
scale = (-1,1);
type = Corner;
},
{
name = _corner.inside_md;
origin = (2,2);
type = Corner;
},
{
name = _corner.inside_md;
options = 2;
origin = (2,3);
scale = (-1,1);
type = Corner;
}
);
layerId = m01;
shapes = (
{
closed = 1;
nodes = (
(923,636,l),
(923,471,l),
(1710,471,l),
(1710,1100,l),
(830,1100,l),
(830,0,l),
(1703,0,l),
(1703,170,l),
(1005,170,l),
(1005,930,l),
(1535,930,l),
(1535,636,l)
);
},
{
closed = 1;
nodes = (
(125,0,l),
(1005,0,l),
(1005,1100,l),
(125,1100,l)
);
},
{
closed = 1;
nodes = (
(830,930,l),
(830,170,l),
(300,170,l),
(300,930,l)
);
}
);
width = 1835;
}
);
metricLeft = "=c";
metricRight = "=e";
unicode = 339;
}
{
glyphname = florin;
layers = (
{
hints = (
{
name = _corner.o_inside;
origin = (0,0);
type = Corner;
},
{
name = _corner.o_outside;
origin = (0,3);
type = Corner;
},
{
name = _corner.o_outside;
origin = (0,7);
type = Corner;
},
{
name = _corner.o_inside;
origin = (0,4);
type = Corner;
}
);
layerId = m01;
shapes = (
{
closed = 1;
nodes = (
(362,1330,l),
(723,1330,l),
(723,1500,l),
(187,1500,l),
(187,-250,l),
(-194,-250,l),
(-194,-420,l),
(362,-420,l)
);
},
{
closed = 1;
nodes = (
(70,930,l),
(663,930,l),
(663,1100,l),
(70,1100,l)
);
}
);
width = 783;
}
);
metricRight = "=f";
unicode = 402;
}
{
glyphname = jdotless;
layers = (
{
hints = (
{
name = _corner.o_inside;
origin = (0,0);
type = Corner;
},
{
name = _corner.o_outside;
origin = (0,3);
type = Corner;
}
);
layerId = m01;
shapes = (
{
closed = 1;
nodes = (
(160,-230,l),
(-201,-230,l),
(-201,-400,l),
(335,-400,l),
(335,1100,l),
(160,1100,l)
);
}
);
width = 495;
}
);
metricRight = "=idotless";
metricWidth = "=idotless";
unicode = 567;
}
{
glyphname = gravecomb;
layers = (
{
anchors = (
{
name = _top;
pos = (600,1500);
}
);
layerId = m01;
shapes = (
{
closed = 1;
nodes = (
(520,1640,l),
(650,1640,l),
(520,1990,l),
(360,1914,l)
);
}
);
width = 1200;
}
);
unicode = 768;
}
{
glyphname = tildecomb;
layers = (
{
anchors = (
{
name = _top;
pos = (600,1500);
}
);
layerId = m01;
shapes = (
{
closed = 1;
nodes = (
(288,1630,l),
(374,1740,o),
(471,1748,o),
(560,1687,cs),
(731,1571,o),
(878,1602,o),
(1023,1787,c),
(912,1874,l),
(826,1764,o),
(729,1756,o),
(640,1817,cs),
(469,1933,o),
(322,1902,o),
(177,1717,c)
);
}
);
width = 1200;
}
);
unicode = 771;
}
{
glyphname = macroncomb;
layers = (
{
anchors = (
{
name = _top;
pos = (600,1500);
},
{
name = top;
pos = (600,1800);
}
);
layerId = m01;
shapes = (
{
closed = 1;
nodes = (
(285,1650,l),
(915,1650,l),
(915,1815,l),
(285,1815,l)
);
}
);
width = 1200;
}
);
unicode = 772;
}
{
glyphname = dotaccentcomb;
layers = (
{
anchors = (
{
name = _top;
pos = (600,1500);
}
);
layerId = m01;
shapes = (
{
closed = 1;
nodes = (
(510,1680,l),
(690,1680,l),
(690,1860,l),
(510,1860,l)
);
}
);
width = 1200;
}
);
unicode = 775;
}
{
glyphname = ringcomb;
layers = (
{
anchors = (
{
name = _top;
pos = (600,1500);
}
);
layerId = m01;
shapes = (
{
closed = 1;
nodes = (
(710,1595,o),
(800,1685,o),
(800,1795,cs),
(800,1905,o),
(710,1995,o),
(600,1995,cs),
(490,1995,o),
(400,1905,o),
(400,1795,cs),
(400,1685,o),
(490,1595,o),
(600,1595,cs)
);
},
{
closed = 1;
nodes = (
(557,1715,o),
(520,1752,o),
(520,1795,cs),
(520,1840,o),
(557,1875,o),
(600,1875,cs),
(645,1875,o),
(680,1840,o),
(680,1795,cs),
(680,1752,o),
(645,1715,o),
(600,1715,cs)
);
}
);
width = 1200;
}
);
unicode = 778;
}
{
glyphname = commaaccentcomb;
layers = (
{
anchors = (
{
name = _bottom;
pos = (600,0);
}
);
layerId = m01;
shapes = (
{
closed = 1;
nodes = (
(520,-560,l),
(607,-560,l),
(680,-330,l),
(680,-150,l),
(520,-150,l)
);
}
);
width = 1200;
}
);
unicode = 806;
}
{
glyphname = cedillacomb;
layers = (
{
anchors = (
{
name = _bottom;
pos = (600,0);
}
);
guides = (
{
angle = 249.9739;
pos = (408,-214);
}
);
layerId = m01;
shapes = (
{
closed = 1;
nodes = (
(468,-214,l),
(511,-208,o),
(559,-206,o),
(621,-206,cs),
(682,-206,o),
(731,-221,o),
(731,-276,cs),
(731,-343,o),
(707,-373,o),
(569,-373,cs),
(516,-373,o),
(461,-367,o),
(419,-352,c),
(372,-479,l),
(422,-504,o),
(490,-518,o),
(602,-518,cs),
(801,-518,o),
(901,-421,o),
(901,-276,cs),
(901,-171,o),
(806,-85,o),
(713,-85,cs),
(682,-85,o),
(652,-86,o),
(622,-88,c),
(655,0,l),
(546,0,l)
);
}
);
width = 1200;
}
);
unicode = 807;
}
{
glyphname = pi;
kernLeft = n;
kernRight = n;
layers = (
{
hints = (
{
name = _corner.outside_sm;
origin = (2,1);
type = Corner;
},
{
name = _corner.inside_sm;
origin = (2,4);
type = Corner;
}
);
layerId = m01;
shapes = (
{
closed = 1;
nodes = (
(342,0,l),
(518,0,l),
(518,1000,l),
(342,1000,l)
);
},
{
closed = 1;
nodes = (
(160,930,l),
(1300,930,l),
(1300,1100,l),
(160,1100,l)
);
},
{
closed = 1;
nodes = (
(932,1000,l),
(932,0,l),
(1268,0,l),
(1268,170,l),
(1107,170,l),
(1107,1000,l)
);
}
);
width = 1460;
}
);
metricLeft = "=n";
metricRight = "=n";
unicode = 960;
}
{
glyphname = baht;
layers = (
{
layerId = m01;
shapes = (
{
closed = 1;
nodes = (
(730,-200,l),
(730,1700,l),
(556,1700,l),
(556,-200,l)
);
},
{
ref = B;
}
);
width = 1200;
}
);
unicode = 3647;
}
{
glyphname = endash;
kernLeft = hyphen;
kernRight = hyphen;
layers = (
{
layerId = m01;
shapes = (
{
closed = 1;
nodes = (
(100,580,l),
(1300,580,l),
(1300,760,l),
(100,760,l)
);
}
);
width = 1400;
}
);
metricLeft = "=hyphen";
metricRight = hyphen;
unicode = 8211;
}
{
glyphname = emdash;
kernLeft = hyphen;
kernRight = hyphen;
layers = (
{
layerId = m01;
shapes = (
{
closed = 1;
nodes = (
(100,580,l),
(1800,580,l),
(1800,760,l),
(100,760,l)
);
}
);
width = 1900;
}
);
metricLeft = hyphen;
metricRight = hyphen;
unicode = 8212;
}
{
glyphname = quoteleft;
kernLeft = quoteleft;
kernRight = quote;
layers = (
{
layerId = m01;
shapes = (
{
closed = 1;
nodes = (
(300,1600,l),
(223,1600,l),
(120,1370,l),
(120,1190,l),
(300,1190,l)
);
}
);
width = 420;
}
);
metricLeft = "=quotesingle";
metricRight = "=quotesingle";
unicode = 8216;
}
{
glyphname = guilsinglleft;
layers = (
{
layerId = m01;
shapes = (
{
closed = 1;
nodes = (
(70,650,l),
(418,308,l),
(620,338,l),
(313,650,l),
(600,962,l),
(418,992,l)
);
}
);
width = 690;
}
);
metricRight = "=|guilsinglleft";
unicode = 8249;
}
{
glyphname = trademark;
layers = (
{
anchors = (
{
name = bottom;
pos = (640,0);
},
{
name = top;
pos = (640,1500);
}
);
layerId = m01;
shapes = (
{
closed = 1;
nodes = (
(350,800,l),
(525,800,l),
(525,1500,l),
(350,1500,l)
);
},
{
closed = 1;
nodes = (
(70,1330,l),
(805,1330,l),
(805,1500,l),
(70,1500,l)
);
},
{
closed = 1;
nodes = (
(1080,800,l),
(1080,1206,l),
(1245,952,l),
(1395,952,l),
(1560,1206,l),
(1560,800,l),
(1735,800,l),
(1735,1500,l),
(1540,1500,l),
(1320,1145,l),
(1100,1500,l),
(905,1500,l),
(905,800,l)
);
}
);
width = 1805;
}
);
metricLeft = "=70";
metricRight = "=|trademark";
unicode = 8482;
}
{
glyphname = partialdiff;
layers = (
{
hints = (
{
name = _corner.inside_md;
origin = (0,5);
type = Corner;
},
{
name = _corner.inside_md;
origin = (0,6);
type = Corner;
},
{
name = _corner.inside_md;
origin = (0,7);
type = Corner;
},
{
name = _cap.shoulder_md;
options = 10;
origin = (0,8);
scale = (1,-1);
type = Cap;
},
{
name = _corner.outside_md;
origin = (0,10);
type = Corner;
},
{
name = _corner.outside_md;
origin = (0,11);
type = Corner;
},
{
name = _corner.outside_md;
origin = (0,12);
type = Corner;
},
{
name = _cap.end_lg;
options = 10;
origin = (0,17);
scale = (1,-1);
type = Cap;
}
);
layerId = m01;
shapes = (
{
closed = 1;
nodes = (
(281,1426,l),
(762,1070,ls),
(830,1019,o),
(860,961,o),
(860,875,cs),
(860,175,l),
(300,175,l),
(300,730,l),
(760,730,l),
(760,900,l),
(125,900,l),
(125,0,l),
(1035,0,l),
(1035,895,ls),
(1035,1028,o),
(989,1120,o),
(882,1199,cs),
(387,1567,l)
);
}
);
width = 1160;
}
);
metricLeft = "=o";
metricRight = "=o";
unicode = 8706;
}
{
glyphname = product;
kernLeft = H;
kernRight = H;
layers = (
{
layerId = m01;
shapes = (
{
closed = 1;
nodes = (
(252,0,l),
(428,0,l),
(428,1400,l),
(252,1400,l)
);
},
{
closed = 1;
nodes = (
(70,1330,l),
(1410,1330,l),
(1410,1500,l),
(70,1500,l)
);
},
{
closed = 1;
nodes = (
(1052,0,l),
(1228,0,l),
(1228,1400,l),
(1052,1400,l)
);
}
);
width = 1480;
}
);
metricLeft = "=T";
metricRight = "=T";
unicode = 8719;
}
{
glyphname = radical;
kernLeft = v;
kernRight = V;
layers = (
{
layerId = m01;
shapes = (
{
closed = 1;
nodes = (
(846,1500,l),
(378,261,l),
(232,648,l),
(40,648,l),
(291,0,l),
(465,0,l),
(973,1330,l),
(1212,1330,l),
(1212,1500,l)
);
}
);
width = 1252;
}
);
metricLeft = "=V";
metricRight = "=V";
unicode = 8730;
}
{
glyphname = infinity;
layers = (
{
hints = (
{
name = _corner.outside_lg;
options = 2;
origin = (1,15);
scale = (-1,1);
type = Corner;
},
{
name = _corner.inside_lg;
options = 2;
origin = (0,0);
scale = (-1,1);
type = Corner;
},
{
name = _corner.inside_lg;
options = 2;
origin = (0,10);
scale = (-1,1);
type = Corner;
},
{
name = _corner.outside_lg;
options = 2;
origin = (1,16);
scale = (-1,1);
type = Corner;
},
{
name = _corner.outside_lg;
options = 2;
origin = (1,4);
scale = (-1,1);
type = Corner;
},
{
name = _corner.outside_lg;
options = 2;
origin = (1,5);
scale = (-1,1);
type = Corner;
},
{
name = _corner.inside_lg;
options = 2;
origin = (2,9);
scale = (-1,1);
type = Corner;
},
{
name = _corner.inside_lg;
options = 2;
origin = (2,10);
scale = (-1,1);
type = Corner;
}
);
layerId = m01;
shapes = (
{
closed = 1;
nodes = (
(280,1040,l),
(723,1040,ls),
(784,1040,o),
(828,1022,o),
(871,979,cs),
(1100,750,l),
(871,521,ls),
(828,478,o),
(784,460,o),
(723,460,cs),
(280,460,l)
);
},
{
closed = 1;
nodes = (
(1455,413,ls),
(1542,326,o),
(1629,290,o),
(1752,290,cs),
(2359,290,l),
(2359,1210,l),
(1752,1210,ls),
(1629,1210,o),
(1542,1174,o),
(1455,1087,cs),
(1229,862,l),
(1004,1087,ls),
(917,1174,o),
(830,1210,o),
(707,1210,cs),
(100,1210,l),
(100,290,l),
(707,290,ls),
(830,290,o),
(917,326,o),
(1004,413,cs),
(1229,638,l)
);
},
{
closed = 1;
nodes = (
(1736,460,ls),
(1675,460,o),
(1631,478,o),
(1588,521,cs),
(1359,750,l),
(1588,979,ls),
(1631,1022,o),
(1675,1040,o),
(1736,1040,cs),
(2179,1040,l),
(2179,460,l)
);
}
);
width = 2459;
}
);
metricRight = "=|infinity";
unicode = 8734;
}
{
glyphname = lozenge;
layers = (
{
layerId = m01;
shapes = (
{
closed = 1;
nodes = (
(694,208,l),
(342,750,l),
(694,1292,l),
(1046,750,l)
);
},
{
closed = 1;
nodes = (
(628,-18,l),
(760,-18,l),
(1258,750,l),
(760,1518,l),
(628,1518,l),
(130,750,l)
);
}
);
width = 1388;
}
);
metricLeft = "=O";
metricRight = "=O";
unicode = 9674;
}
{
glyphname = I.ss01;
kernLeft = H;
kernRight = H;
layers = (
{
layerId = m01;
shapes = (
{
closed = 1;
nodes = (
(380,100,l),
(560,100,l),
(560,1400,l),
(380,1400,l)
);
},
{
closed = 1;
nodes = (
(70,1325,l),
(870,1325,l),
(870,1500,l),
(70,1500,l)
);
},
{
closed = 1;
nodes = (
(70,0,l),
(870,0,l),
(870,175,l),
(70,175,l)
);
}
);
width = 940;
}
);
metricLeft = "=T";
metricRight = "=T";
}
{
export = 0;
glyphname = _cap.a_shoulder;
layers = (
{
anchors = (
{
name = node1;
pos = (0,1100);
},
{
name = node2;
pos = (0,930);
}
);
layerId = m01;
shapes = (
{
closed = 0;
nodes = (
(60,1100,l),
(8,1100,o),
(-18,1095,o),
(-46,1081,c),
(-60,1088,l),
(-60,862,l),
(-60,899,o),
(-31,930,o),
(20,930,c)
);
}
);
width = 400;
}
);
}
{
export = 0;
glyphname = _cap.b_shoulder;
layers = (
{
anchors = (
{
name = node1;
pos = (0,1100);
},
{
name = node2;
pos = (0,930);
}
);
layerId = m01;
shapes = (
{
closed = 0;
nodes = (
(160,1100,l),
(43,1100,o),
(20,1092,o),
(-86,981,c),
(-100,986,l),
(-100,712,l),
(-100,789,o),
(-87,806,o),
(-21,878,cs),
(18,920,o),
(68,930,o),
(140,930,c)
);
}
);
width = 400;
}
);
}
{
export = 0;
glyphname = _cap.c_end;
layers = (
{
anchors = (
{
name = node1;
pos = (0,930);
},
{
name = node2;
pos = (0,1100);
}
);
layerId = m01;
shapes = (
{
closed = 0;
nodes = (
(-321,930,l),
(-247,930,o),
(-221,920,o),
(-152,841,c),
(0,924,l),
(-115,1086,o),
(-178,1100,o),
(-331,1100,c)
);
}
);
width = 400;
}
);
}
{
export = 0;
glyphname = _cap.end_lg;
layers = (
{
anchors = (
{
name = node1;
pos = (0,930);
},
{
name = node2;
pos = (0,1100);
}
);
layerId = m01;
shapes = (
{
closed = 0;
nodes = (
(-425,920,l),
(-288,920,o),
(-276,923,o),
(-141,770,c),
(0,864,l),
(-171,1074,o),
(-242,1100,o),
(-415,1100,c)
);
}
);
width = 400;
}
);
}
{
export = 0;
glyphname = _cap.m_shoulder;
layers = (
{
anchors = (
{
name = node1;
pos = (0,1100);
},
{
name = node2;
pos = (0,930);
}
);
layerId = m01;
shapes = (
{
closed = 0;
nodes = (
(130,1100,l),
(-4,1100,o),
(-48,1068,o),
(-217,890,c),
(-100,732,l),
(-100,802,o),
(-92,820,o),
(-27,872,cs),
(36,922,o),
(58,930,o),
(120,930,c)
);
}
);
width = 400;
}
);
}
{
export = 0;
glyphname = _cap.r_end;
layers = (
{
anchors = (
{
name = node1;
pos = (0,930);
},
{
name = node2;
pos = (0,1100);
}
);
layerId = m01;
shapes = (
{
closed = 0;
nodes = (
(-135,930,l),
(-63,930,o),
(-13,920,o),
(26,878,c),
(130,1010,l),
(42,1091,o),
(-35,1100,o),
(-155,1100,c)
);
}
);
width = 400;
}
);
}
{
export = 0;
glyphname = _corner.S_inside;
layers = (
{
layerId = m01;
shapes = (
{
closed = 0;
nodes = (
(125,0,l),
(45,0,o),
(0,45,o),
(0,125,c)
);
}
);
width = 420;
}
);
}
{
export = 0;
glyphname = _corner.S_outside;
layers = (
{
layerId = m01;
shapes = (
{
closed = 0;
nodes = (
(0,295,l),
(0,85,o),
(85,0,o),
(295,0,c)
);
}
);
width = 420;
}
);
}
{
export = 0;
glyphname = _corner.inktrap;
layers = (
{
layerId = m01;
shapes = (
{
closed = 0;
nodes = (
(45,0,l),
(27,0,o),
(0,27,o),
(0,45,c)
);
}
);
width = 420;
}
);
}
{
export = 0;
glyphname = _corner.inside_lg;
layers = (
{
layerId = m01;
shapes = (
{
closed = 0;
nodes = (
(260,0,l),
(175,0,o),
(138,18,o),
(78,78,cs),
(18,138,o),
(0,175,o),
(0,260,c)
);
}
);
width = 420;
}
);
}
{
export = 0;
glyphname = _corner.inside_md;
layers = (
{
layerId = m01;
shapes = (
{
closed = 0;
nodes = (
(210,0,l),
(140,0,o),
(109,11,o),
(60,60,cs),
(11,109,o),
(0,140,o),
(0,210,c)
);
}
);
width = 420;
}
);
}
{
export = 0;
glyphname = _corner.o_inside;
layers = (
{
layerId = m01;
shapes = (
{
closed = 0;
nodes = (
(215,0,l),
(145,0,o),
(110,12,o),
(61,61,cs),
(12,110,o),
(0,145,o),
(0,215,c)
);
}
);
width = 420;
}
);
}
{
export = 0;
glyphname = _corner.o_inside_small;
layers = (
{
layerId = m01;
shapes = (
{
closed = 0;
nodes = (
(158,0,l),
(98,0,o),
(76,2,o),
(39,39,cs),
(2,76,o),
(0,98,o),
(0,158,c)
);
}
);
width = 420;
}
);
}
{
export = 0;
glyphname = _corner.o_outside;
layers = (
{
layerId = m01;
shapes = (
{
closed = 0;
nodes = (
(0,380,l),
(0,270,o),
(10,210,o),
(110,110,cs),
(210,10,o),
(270,0,o),
(380,0,c)
);
}
);
width = 420;
}
);
}
{
export = 0;
glyphname = _corner.o_outside_small;
layers = (
{
layerId = m01;
shapes = (
{
closed = 0;
nodes = (
(0,320,l),
(0,210,o),
(8,164,o),
(86,86,cs),
(164,8,o),
(210,0,o),
(320,0,c)
);
}
);
width = 420;
}
);
}
{
export = 0;
glyphname = _corner.outside_lg;
layers = (
{
layerId = m01;
shapes = (
{
closed = 0;
nodes = (
(0,420,l),
(0,310,o),
(20,240,o),
(130,130,cs),
(240,20,o),
(310,0,o),
(420,0,c)
);
}
);
width = 420;
}
);
}
{
export = 0;
glyphname = _corner.outside_sm;
layers = (
{
layerId = m01;
shapes = (
{
closed = 0;
nodes = (
(0,265,l),
(0,95,o),
(95,0,o),
(265,0,c)
);
}
);
width = 420;
}
);
}
{
export = 0;
glyphname = _corner.s_inside;
layers = (
{
layerId = m01;
shapes = (
{
closed = 0;
nodes = (
(75,0,l),
(25,0,o),
(0,25,o),
(0,75,c)
);
}
);
width = 420;
}
);
}
{
export = 0;
glyphname = _corner.s_outside;
layers = (
{
layerId = m01;
shapes = (
{
closed = 0;
nodes = (
(0,265,l),
(0,75,o),
(75,0,o),
(265,0,c)
);
}
);
width = 420;
}
);
}
{
glyphname = _corner.v;
kernLeft = v;
kernRight = v;
layers = (
{
anchors = (
{
name = corner;
}
);
layerId = m01;
shapes = (
{
closed = 0;
nodes = (
(111,372,l),
(55,175,o),
(32,95,o),
(-13,-94,c),
(13,-94,l),
(-32,95,o),
(-55,175,o),
(-111,372,c)
);
}
);
width = 1140;
}
);
}
{
export = 0;
glyphname = _part.Oslash;
layers = (
{
anchors = (
{
name = _top;
pos = (670,1500);
}
);
layerId = m01;
shapes = (
{
closed = 1;
nodes = (
(14,-34,l),
(156,-136,l),
(1326,1534,l),
(1184,1636,l)
);
}
);
width = 1340;
}
);
}
{
export = 0;
glyphname = _part.arrow_head;
layers = (
{
layerId = m01;
shapes = (
{
closed = 1;
nodes = (
(976,750,l),
(575,349,l),
(702,222,l),
(1230,750,l),
(702,1278,l),
(575,1151,l)
);
}
);
width = 1350;
}
);
}
{
glyphname = _part.dash;
kernLeft = hyphen;
kernRight = hyphen;
layers = (
{
layerId = m01;
partSelection = {
Width = 2;
};
shapes = (
{
closed = 1;
nodes = (
(0,663,l),
(2048,663,l),
(2048,837,l),
(0,837,l)
);
}
);
width = 2048;
},
{
associatedMasterId = m01;
layerId = "5FFD179F-2455-4998-91E6-6EA6A7A61CA5";
name = Narrow;
partSelection = {
Width = 1;
};
shapes = (
{
closed = 1;
nodes = (
(0,663,l),
(256,663,l),
(256,837,l),
(0,837,l)
);
}
);
width = 256;
}
);
partsSettings = (
{
bottomValue = 256;
name = Width;
topValue = 2048;
}
);
}
{
export = 0;
glyphname = _part.oslash;
layers = (
{
anchors = (
{
name = _top;
pos = (575,1100);
}
);
layerId = m01;
shapes = (
{
closed = 1;
nodes = (
(69,-34,l),
(211,-136,l),
(1081,1134,l),
(939,1236,l)
);
}
);
width = 1150;
}
);
}
{
export = 0;
glyphname = _part.percent_slash;
layers = (
{
layerId = m01;
shapes = (
{
closed = 1;
nodes = (
(63,50,l),
(216,-40,l),
(1138,1450,l),
(985,1540,l)
);
}
);
width = 1200;
}
);
}
{
glyphname = five.dnom;
kernLeft = dnom;
kernRight = dnom;
layers = (
{
hints = (
{
name = _corner.inside_md;
origin = (0,4);
scale = (0.7,0.7);
type = Corner;
},
{
name = _corner.inside_md;
options = 2;
origin = (0,5);
scale = (-0.7,0.7);
type = Corner;
},
{
name = _cap.end_md;
options = 2;
origin = (0,6);
type = Cap;
},
{
name = _corner.outside_md;
options = 2;
origin = (0,8);
scale = (-0.8,0.8);
type = Corner;
},
{
name = _corner.outside_md;
origin = (0,9);
scale = (0.8,0.8);
type = Corner;
}
);
layerId = m01;
shapes = (
{
closed = 1;
nodes = (
(870,930,l),
(870,1100,l),
(160,1100,l),
(160,500,l),
(730,500,l),
(730,170,l),
(100,170,l),
(100,0,l),
(900,0,l),
(900,670,l),
(336,670,l),
(336,930,l)
);
}
);
width = 1000;
}
);
}
{
glyphname = four.dnom;
kernLeft = dnom;
kernRight = dnom;
layers = (
{
layerId = m01;
shapes = (
{
closed = 1;
nodes = (
(630,0,l),
(810,0,l),
(810,710,l),
(630,710,l)
);
},
{
closed = 1;
nodes = (
(910,370,l),
(298,370,l),
(680,1100,l),
(477,1100,l),
(100,380,l),
(100,200,l),
(910,200,l)
);
}
);
width = 1000;
}
);
}
{
glyphname = one.dnom;
kernLeft = dnom;
kernRight = dnom;
layers = (
{
layerId = m01;
shapes = (
{
closed = 1;
nodes = (
(248,930,l),
(428,930,l),
(428,100,l),
(608,100,l),
(608,1100,l),
(248,1100,l)
);
},
{
closed = 1;
nodes = (
(130,0,l),
(870,0,l),
(870,175,l),
(130,175,l)
);
}
);
width = 1000;
}
);
}
{
glyphname = seven.dnom;
kernLeft = dnom;
kernRight = dnom;
layers = (
{
layerId = m01;
shapes = (
{
closed = 1;
nodes = (
(100,800,l),
(276,800,l),
(276,930,l),
(683,930,l),
(267,0,l),
(458,0,l),
(870,920,l),
(870,1100,l),
(100,1100,l)
);
}
);
width = 1000;
}
);
}
{
glyphname = six.dnom;
kernLeft = dnom;
kernRight = dnom;
layers = (
{
hints = (
{
name = _corner.outside_lg;
options = 2;
origin = (0,1);
scale = (-0.8,0.8);
type = Corner;
},
{
name = _corner.outside_lg;
origin = (0,2);
scale = (0.75,0.75);
type = Corner;
},
{
name = _corner.outside_lg;
options = 2;
origin = (0,3);
scale = (-0.75,0.75);
type = Corner;
},
{
name = _corner.outside_lg;
origin = (0,4);
scale = (0.75,0.75);
type = Corner;
},
{
name = _cap.shoulder_sm;
options = 10;
origin = (0,5);
type = Cap;
},
{
name = _corner.inside_lg;
origin = (0,7);
scale = (0.55,0.55);
type = Corner;
},
{
name = _corner.inside_lg;
options = 2;
origin = (0,8);
scale = (-0.6,0.6);
type = Corner;
},
{
name = _corner.inside_lg;
origin = (0,9);
scale = (0.7,0.7);
type = Corner;
},
{
name = _corner.inside_lg;
options = 2;
origin = (0,10);
scale = (-0.6,0.6);
type = Corner;
},
{
name = _cap.end_md;
options = 2;
origin = (0,11);
type = Cap;
}
);
layerId = m01;
shapes = (
{
closed = 1;
nodes = (
(900,1100,l),
(100,1100,l),
(100,0,l),
(900,0,l),
(900,680,l),
(340,680,l),
(340,510,l),
(720,510,l),
(720,170,l),
(280,170,l),
(280,930,l),
(900,930,l)
);
}
);
width = 1000;
}
);
}
{
glyphname = three.dnom;
kernLeft = dnom;
kernRight = dnom;
layers = (
{
hints = (
{
name = _corner.inside_md;
origin = (0,1);
scale = (0.6,0.6);
type = Corner;
},
{
name = _corner.inside_md;
options = 2;
origin = (0,2);
scale = (-0.5,0.5);
type = Corner;
},
{
name = _corner.inside_md;
origin = (0,5);
scale = (0.5,0.5);
type = Corner;
},
{
name = _corner.inside_md;
options = 2;
origin = (0,6);
scale = (-0.6,0.6);
type = Corner;
},
{
name = _cap.end_md;
options = 10;
origin = (0,7);
type = Cap;
},
{
name = _corner.outside_md;
options = 2;
origin = (0,9);
scale = (-0.7,0.7);
type = Corner;
},
{
name = _corner.outside_md;
origin = (0,18);
scale = (0.7,0.7);
type = Corner;
},
{
name = _cap.end_md;
options = 10;
origin = (0,19);
scale = (1,-1);
type = Cap;
}
);
layerId = m01;
shapes = (
{
closed = 1;
nodes = (
(100,930,l),
(730,930,l),
(730,635,l),
(459,635,l),
(459,465,l),
(740,465,l),
(740,170,l),
(100,170,l),
(100,0,l),
(910,0,l),
(910,285,l),
(905,420,o),
(895,506,o),
(673,624,c),
(673,476,l),
(895,594,o),
(895,630,o),
(900,765,c),
(900,1100,l),
(100,1100,l)
);
}
);
width = 1000;
}
);
}
{
glyphname = zero.dnom;
kernLeft = dnom;
kernRight = dnom;
layers = (
{
hints = (
{
name = _corner.outside_md;
origin = (0,0);
type = Corner;
},
{
name = _corner.outside_md;
options = 2;
origin = (0,1);
scale = (-1,1);
type = Corner;
},
{
name = _corner.outside_md;
origin = (0,2);
type = Corner;
},
{
name = _corner.outside_md;
options = 2;
origin = (0,3);
scale = (-1,1);
type = Corner;
},
{
name = _corner.inside_md;
origin = (1,0);
type = Corner;
},
{
name = _corner.inside_md;
options = 2;
origin = (1,1);
scale = (-1,1);
type = Corner;
},
{
name = _corner.inside_md;
origin = (1,2);
type = Corner;
},
{
name = _corner.inside_md;
options = 2;
origin = (1,3);
scale = (-1,1);
type = Corner;
}
);
layerId = m01;
shapes = (
{
closed = 1;
nodes = (
(70,0,l),
(930,0,l),
(930,1100,l),
(70,1100,l)
);
},
{
closed = 1;
nodes = (
(755,930,l),
(755,170,l),
(245,170,l),
(245,930,l)
);
},
{
closed = 1;
nodes = (
(225,280,l),
(325,110,l),
(775,820,l),
(675,990,l)
);
}
);
width = 1000;
}
);
}
